# xmcd
#
# Track frame offsets:
# 150
# 23418
# 59669
# 78132
# 104342
# 133710
# 155547
# 193175
# 211179
# 247592
# 274315
# 290348
#
# Disc length: 4225 seconds
#
#
# Revision: 4
# Processed by: cddbd v1.5PL3 Copyright (c) Steve Scherf et al.
# Submitted via: FreeRIP 2.70 
#
DISCID=a1107f0c
DTITLE=Dire Straits - The very best of
DYEAR=1900
DGENRE=
TTITLE0=So far away
TTITLE1=Money for nothing
TTITLE2=Walk of live
TTITLE3=Sultans of swing
TTITLE4=You latest trick
TTITLE5=Brother in arms
TTITLE6=Why worry
TTITLE7=Down to the waterline
TTITLE8=Tunnel of love
TTITLE9=Romeo and Juliet
TTITLE10=One world
TTITLE11=Private investigations
EXTD=
EXTT0=
EXTT1=
EXTT2=
EXTT3=
EXTT4=
EXTT5=
EXTT6=
EXTT7=
EXTT8=
EXTT9=
EXTT10=
EXTT11=
PLAYORDER=
